<?xml version="1.0" standalone="no"?>
<!DOCTYPE svg PUBLIC "-//W3C//DTD SVG 20010904//EN"
 "http://www.w3.org/TR/2001/REC-SVG-20010904/DTD/svg10.dtd">
<svg version="1.0" xmlns="http://www.w3.org/2000/svg"
 width="260.000000pt" height="260.000000pt" viewBox="0 0 260.000000 260.000000"
 preserveAspectRatio="xMidYMid meet">
<metadata>
Created by potrace 1.14, written by Peter Selinger 2001-2017
</metadata>
<g transform="translate(0.000000,260.000000) scale(0.100000,-0.100000)"
fill="#000000" stroke="none">
<path d="M241 2423 c-19 -10 -44 -31 -55 -46 -21 -28 -21 -34 -24 -1070 -2
-977 -1 -1044 15 -1077 38 -74 -34 -70 1123 -70 965 0 1037 1 1070 18 74 37
70 -35 70 1117 0 961 -1 1032 -18 1064 -9 19 -30 44 -45 55 -28 21 -34 21
-1065 24 -972 2 -1039 1 -1071 -15z m1927 -596 l112 -112 -575 -575 -575 -575
-400 400 c-220 220 -400 404 -400 409 0 13 212 226 225 226 5 0 137 -127 292
-282 l283 -283 453 453 c248 248 457 452 462 452 6 0 61 -51 123 -113z"/>
</g>
</svg>
